<svg version="1.1" xmlns="http://www.w3.org/2000/svg" xmlns:xlink="http://www.w3.org/1999/xlink" width="54px" height="62px" viewBox="0,0,222.95313,256"><g fill="#aca5a8" fill-rule="nonzero" stroke="none" stroke-width="1" stroke-linecap="butt" stroke-linejoin="miter" stroke-miterlimit="10" stroke-dasharray="" stroke-dashoffset="0" font-family="none" font-weight="none" font-size="none" text-anchor="none" style="mix-blend-mode: normal"><g transform="translate(-0.00731,0) scale(4.12903,4.19672)"><g id="surface1"><path d="M0,3.8125v53.375h54v-53.375zM29.38672,45.44141c0,5.19141 -3.08594,7.5625 -7.58203,7.5625c-4.0625,0 -6.41406,-2.07031 -7.61719,-4.58594l4.13281,-2.46484c0.79688,1.39453 1.51953,2.57422 3.26953,2.57422c1.66016,0 2.72266,-0.64453 2.72266,-3.16016v-17.04688h5.07422zM41.39063,53.00391c-4.71094,0 -7.76172,-2.21484 -9.24219,-5.12109l4.13281,-2.35937c1.08594,1.75 2.50781,3.05078 5.00391,3.05078c2.09375,0 3.44531,-1.03516 3.44531,-2.48047c0,-1.71484 -1.375,-2.32031 -3.69922,-3.33594l-1.26562,-0.53516c-3.66406,-1.53516 -6.08984,-3.47656 -6.08984,-7.56641c0,-3.76172 2.90625,-6.62109 7.42578,-6.62109c3.23047,0 5.54688,1.10547 7.21094,4.01172l-3.95703,2.50391c-0.86719,-1.53516 -1.80469,-2.14453 -3.26562,-2.14453c-1.48047,0 -2.42187,0.92969 -2.42187,2.14453c0,1.5 0.94141,2.10938 3.12109,3.05078l1.26563,0.53516c4.31641,1.82422 6.73828,3.69531 6.73828,7.88672c0,4.50391 -3.58984,6.98047 -8.40234,6.98047zM41.39063,53.00391"></path></g></g></g></svg>