<?xml version="1.0" encoding="UTF-8"?>
<svg xmlns="http://www.w3.org/2000/svg" xmlns:xlink="http://www.w3.org/1999/xlink" width="78px" height="62px" viewBox="0 0 77 62" version="1.1">
<g id="surface1">
<path style=" stroke:none;fill-rule:nonzero;fill:rgb(67.450982%,64.705884%,65.882355%);fill-opacity:1;" d="M 38.5 12.65625 C 59.121094 12.65625 74.980469 21.398438 74.980469 31 C 74.980469 40.601562 59.109375 49.347656 38.5 49.347656 C 17.878906 49.347656 2.019531 40.601562 2.019531 31 C 2.019531 21.398438 17.890625 12.65625 38.5 12.65625 M 38.5 10.621094 C 17.242188 10.621094 0 19.738281 0 31 C 0 42.261719 17.242188 51.378906 38.5 51.378906 C 59.757812 51.378906 77 42.261719 77 31 C 77 19.738281 59.757812 10.621094 38.5 10.621094 Z M 26.253906 29.367188 C 25.300781 34.269531 21.945312 33.761719 17.816406 33.761719 L 19.464844 25.210938 C 24.039062 25.210938 27.140625 24.714844 26.253906 29.367188 Z M 11.71875 42.417969 L 16.132812 42.417969 L 17.179688 36.996094 C 22.125 36.996094 25.195312 37.359375 28.03125 34.679688 C 31.171875 31.773438 31.992188 26.605469 29.753906 24.011719 C 28.585938 22.65625 26.710938 21.992188 24.160156 21.992188 L 15.652344 21.992188 Z M 34.058594 16.554688 L 38.453125 16.554688 L 37.40625 21.980469 C 41.195312 21.980469 44.707031 21.699219 46.40625 23.273438 C 48.183594 24.921875 47.332031 27.027344 45.40625 36.96875 L 40.953125 36.96875 C 42.808594 27.355469 43.15625 26.554688 42.480469 25.828125 C 41.832031 25.128906 40.351562 25.273438 36.78125 25.273438 L 34.519531 36.96875 L 30.125 36.96875 Z M 60.757812 29.367188 C 59.796875 34.34375 56.34375 33.761719 52.324219 33.761719 L 53.972656 25.210938 C 58.566406 25.210938 61.648438 24.714844 60.757812 29.367188 Z M 46.222656 42.417969 L 50.652344 42.417969 L 51.699219 36.996094 C 56.894531 36.996094 59.769531 37.296875 62.550781 34.679688 C 65.691406 31.773438 66.507812 26.605469 64.269531 24.011719 C 63.105469 22.65625 61.226562 21.992188 58.675781 21.992188 L 50.171875 21.992188 Z M 46.222656 42.417969 "/>
</g>
</svg>
